<?xml version="1.0" standalone="no"?><!DOCTYPE svg PUBLIC "-//W3C//DTD SVG 1.1//EN" "http://www.w3.org/Graphics/SVG/1.1/DTD/svg11.dtd"><svg t="1509892654012" class="icon" style="" viewBox="0 0 1024 1024" version="1.1" xmlns="http://www.w3.org/2000/svg" p-id="2481" xmlns:xlink="http://www.w3.org/1999/xlink" width="32" height="32"><defs><style type="text/css"></style></defs><path d="M961.797 388.639v-141.61c0-0.818-0.205-1.576-0.24-2.385v-5.54h-0.559c-3.88-27.054-26.92-47.923-55.045-47.923H129.085c-28.129 0-51.169 20.869-55.05 47.923h-0.799v200.955h0.241v40.059c-0.036 0.809-0.24 1.572-0.24 2.386V788.1c0 0.82 0.204 1.577 0.24 2.386v5.535h0.558c3.881 27.054 26.921 47.923 55.045 47.923h776.863c28.13 0 51.17-20.87 55.05-47.923h0.799V431.089h-0.24v-40.06c0.04-0.808 0.245-1.571 0.245-2.39z" fill="#5B5144" p-id="2482"></path><path d="M906.266 419.39V295.48c0-0.716-0.18-1.382-0.21-2.089v-4.843h-0.487c-3.394-23.675-23.557-41.933-48.169-41.933H177.638c-24.611 0-44.774 18.258-48.169 41.933h-0.696v175.836h0.21v35.052c-0.03 0.706-0.21 1.372-0.21 2.088v267.398c0 0.716 0.18 1.382 0.21 2.089v4.843h0.486c3.395 23.675 23.558 41.933 48.17 41.933H857.4c24.612 0 44.775-18.258 48.17-41.933h0.7V456.53h-0.21v-35.052c0.026-0.706 0.206-1.372 0.206-2.089z" fill="#3BCDAE" p-id="2483"></path><path d="M1001.462 819.123a42.706 42.706 0 0 0-42.701-42.552H65.239c-23.537 0-42.609 19.041-42.7 42.552h978.923z" fill="#FCE38A" p-id="2484"></path><path d="M340.925 778.27c-0.015-23.515-2.903-42.552-6.461-42.552H199.219c-3.563 0-6.451 19.042-6.461 42.553h148.167z" fill="#FFFFFF" p-id="2485"></path><path d="M1001.462 817.93a42.706 42.706 0 0 1-42.701 42.553H65.239c-23.537 0-42.609-19.042-42.7-42.553h978.923z" fill="#EEDBC3" p-id="2486"></path><path d="M420.72 604.913h-38.589V475.249h-14.894v-25.483c4.87 0 9.447-2.35 13.727-7.055 4.28-4.715 6.42-9.503 6.42-14.387h33.342v176.589z m141.523-89.032h-34.31v34.31h-20.188v-34.31h-34.299v-20.173h34.3V461.4h20.187v34.31h34.31v20.172z m103.92 89.032h-38.59V475.249H612.68v-25.483c4.869 0 9.446-2.35 13.726-7.055 4.28-4.715 6.42-9.503 6.42-14.387h33.342v176.589z" fill="#FFFFFF" p-id="2487"></path></svg>